                                                                        S      1
,,53HСинфазный дроссель высокий v2,53HСинфаG      1
зный дроссель высокий v2,7Hunknown,7Hunknown,32,38,7,G      2
99,15,,1.,2,2HMM,1,0.08,15H20220526.030124,0.01,10000.,7Hunknown,7HunknoG      3
wn,11,0,15H20220526.004931;                                             G      4
     186       1                                                00000000D      1
     186            -247       1       0                               0D      2
     514       2                                                00010000D      3
     514                       2       1                               0D      4
     510       4                                                00010000D      5
     510            -247       1       1                               0D      6
     510       5                                                00010000D      7
     510            -247       1       1                               0D      8
     510       6                                                00010000D      9
     510            -247       1       1                               0D     10
     510       7                                                00010000D     11
     510            -247       1       1                               0D     12
     510       8                                                00010000D     13
     510            -247       1       1                               0D     14
     510       9                                                00010000D     15
     510            -247       1       1                               0D     16
     510      10                                                00010000D     17
     510            -247       1       1                               0D     18
     510      11                                                00010000D     19
     510            -247       1       1                               0D     20
     510      12                                                00010000D     21
     510            -247       1       1                               0D     22
     510      13                                                00010000D     23
     510            -247       1       1                               0D     24
     510      14                                                00010000D     25
     510            -247       1       1                               0D     26
     510      15                                                00010000D     27
     510            -247       1       1                               0D     28
     510      16                                                00010000D     29
     510            -247       1       1                               0D     30
     510      17                                                00010000D     31
     510            -247       1       1                               0D     32
     510      18                                                00010000D     33
     510            -247       1       1                               0D     34
     510      19                                                00010000D     35
     510            -247       1       1                               0D     36
     510      20                                                00010000D     37
     510            -247       1       1                               0D     38
     510      21                                                00010000D     39
     510            -247       1       1                               0D     40
     510      22                                                00010000D     41
     510            -247       1       1                               0D     42
     510      23                                                00010000D     43
     510            -247       1       1                               0D     44
     510      24                                                00010000D     45
     510            -247       1       1                               0D     46
     510      25                                                00010000D     47
     510            -247       1       1                               0D     48
     508      26                                                00010000D     49
     508                       1       1                               0D     50
     508      27                                                00010000D     51
     508                       1       1                               0D     52
     508      28                                                00010000D     53
     508                       1       1                               0D     54
     508      29                                                00010000D     55
     508                       1       1                               0D     56
     508      30                                                00010000D     57
     508                       1       1                               0D     58
     508      31                                                00010000D     59
     508                       1       1                               0D     60
     508      32                                                00010000D     61
     508                       1       1                               0D     62
     508      33                                                00010000D     63
     508                       1       1                               0D     64
     508      34                                                00010000D     65
     508                       1       1                               0D     66
     508      35                                                00010000D     67
     508                       1       1                               0D     68
     508      36                                                00010000D     69
     508                       1       1                               0D     70
     508      37                                                00010000D     71
     508                       1       1                               0D     72
     508      38                                                00010000D     73
     508                       2       1                               0D     74
     508      40                                                00010000D     75
     508                       1       1                               0D     76
     508      41                                                00010000D     77
     508                       1       1                               0D     78
     508      42                                                00010000D     79
     508                       1       1                               0D     80
     508      43                                                00010000D     81
     508                       1       1                               0D     82
     508      44                                                00010000D     83
     508                       2       1                               0D     84
     508      46                                                00010000D     85
     508                       1       1                               0D     86
     508      47                                                00010000D     87
     508                       1       1                               0D     88
     508      48                                                00010000D     89
     508                       1       1                               0D     90
     508      49                                                00010000D     91
     508                       3       1                               0D     92
     508      52                                                00010000D     93
     508                       1       1                               0D     94
     508      53                                                00010000D     95
     508                       1       1                               0D     96
     508      54                                                00010000D     97
     508                       1       1                               0D     98
     508      55                                                00010000D     99
     508                       1       1                               0D    100
     126      56                                                00010000D    101
     126       0               8       0                               0D    102
     126      64                                                00010000D    103
     126       0               2       0                               0D    104
     126      66                                                00010000D    105
     126       0               8       0                               0D    106
     126      74                                                00010000D    107
     126       0               8       0                               0D    108
     126      82                                                00010000D    109
     126       0               2       0                               0D    110
     126      84                                                00010000D    111
     126       0               8       0                               0D    112
     126      92                                                00010000D    113
     126       0               8       0                               0D    114
     126     100                                                00010000D    115
     126       0               2       0                               0D    116
     126     102                                                00010000D    117
     126       0               8       0                               0D    118
     126     110                                                00010000D    119
     126       0               8       0                               0D    120
     126     118                                                00010000D    121
     126       0               2       0                               0D    122
     126     120                                                00010000D    123
     126       0               8       0                               0D    124
     126     128                                                00010000D    125
     126       0               2       0                               0D    126
     126     130                                                00010000D    127
     126       0               2       0                               0D    128
     126     132                                                00010000D    129
     126       0               2       0                               0D    130
     126     134                                                00010000D    131
     126       0               2       0                               0D    132
     126     136                                                00010000D    133
     126       0               2       0                               0D    134
     126     138                                                00010000D    135
     126       0               2       0                               0D    136
     126     140                                                00010000D    137
     126       0               2       0                               0D    138
     126     142                                                00010000D    139
     126       0               2       0                               0D    140
     126     144                                                00010000D    141
     126       0               2       0                               0D    142
     126     146                                                00010000D    143
     126       0               2       0                               0D    144
     126     148                                                00010000D    145
     126       0               2       0                               0D    146
     126     150                                                00010000D    147
     126       0               2       0                               0D    148
     126     152                                                00010000D    149
     126       0               2       0                               0D    150
     126     154                                                00010000D    151
     126       0               2       0                               0D    152
     126     156                                                00010000D    153
     126       0               2       0                               0D    154
     126     158                                                00010000D    155
     126       0               2       0                               0D    156
     126     160                                                00010000D    157
     126       0               2       0                               0D    158
     126     162                                                00010000D    159
     126       0               2       0                               0D    160
     126     164                                                00010000D    161
     126       0               2       0                               0D    162
     126     166                                                00010000D    163
     126       0               2       0                               0D    164
     126     168                                                00010000D    165
     126       0               2       0                               0D    166
     126     170                                                00010000D    167
     126       0               2       0                               0D    168
     126     172                                                00010000D    169
     126       0               2       0                               0D    170
     126     174                                                00010000D    171
     126       0               2       0                               0D    172
     126     176                                                00010000D    173
     126       0               2       0                               0D    174
     126     178                                                00010000D    175
     126       0               2       0                               0D    176
     126     180                                                00010000D    177
     126       0               2       0                               0D    178
     126     182                                                00010000D    179
     126       0               2       0                               0D    180
     126     184                                                00010000D    181
     126       0               2       0                               0D    182
     126     186                                                00010000D    183
     126       0               2       0                               0D    184
     126     188                                                00010000D    185
     126       0               2       0                               0D    186
     126     190                                                00010000D    187
     126       0               2       0                               0D    188
     126     192                                                00010000D    189
     126       0               2       0                               0D    190
     126     194                                                00010000D    191
     126       0               2       0                               0D    192
     126     196                                                00010000D    193
     126       0               2       0                               0D    194
     126     198                                                00010000D    195
     126       0               2       0                               0D    196
     128     200                                                00010000D    197
     128       0    -247      11       0                               0D    198
     128     211                                                00010000D    199
     128       0    -247       3       0                               0D    200
     128     214                                                00010000D    201
     128       0    -247      12       0                               0D    202
     128     226                                                00010000D    203
     128       0    -247       6       0                               0D    204
     128     232                                                00010000D    205
     128       0    -247      11       0                               0D    206
     128     243                                                00010000D    207
     128       0    -247       3       0                               0D    208
     128     246                                                00010000D    209
     128       0    -247      12       0                               0D    210
     128     258                                                00010000D    211
     128       0    -247       6       0                               0D    212
     128     264                                                00010000D    213
     128       0    -247       3       0                               0D    214
     128     267                                                00010000D    215
     128       0    -247       4       0                               0D    216
     128     271                                                00010000D    217
     128       0    -247       3       0                               0D    218
     128     274                                                00010000D    219
     128       0    -247       3       0                               0D    220
     128     277                                                00010000D    221
     128       0    -247       4       0                               0D    222
     128     281                                                00010000D    223
     128       0    -247       3       0                               0D    224
     128     284                                                00010000D    225
     128       0    -247       3       0                               0D    226
     128     287                                                00010000D    227
     128       0    -247       3       0                               0D    228
     128     290                                                00010000D    229
     128       0    -247       4       0                               0D    230
     128     294                                                00010000D    231
     128       0    -247       3       0                               0D    232
     128     297                                                00010000D    233
     128       0    -247       3       0                               0D    234
     128     300                                                00010000D    235
     128       0    -247       3       0                               0D    236
     128     303                                                00010000D    237
     128       0    -247       3       0                               0D    238
     128     306                                                00010000D    239
     128       0    -247       3       0                               0D    240
     502     309                                                00010000D    241
     502                       7       1                               0D    242
     504     316                                                00010001D    243
     504                      14       1                               0D    244
     406     330                                                00000000D    245
     406                       1      15                               0D    246
     314     331                                                00000200D    247
     314                       2       0                               0D    248
186,3,1,0,0,1,245;                                                     1P      1
514,22,5,1,7,1,9,1,11,1,13,1,15,1,17,1,19,1,21,1,23,1,25,1,27,1,       3P      2
29,1,31,1,33,1,35,1,37,1,39,1,41,1,43,1,45,1,47,1;                     3P      3
510,197,1,1,49;                                                        5P      4
510,199,1,1,51;                                                        7P      5
510,201,1,1,53;                                                        9P      6
510,203,1,1,55;                                                       11P      7
510,205,1,1,57;                                                       13P      8
510,207,1,1,59;                                                       15P      9
510,209,1,1,61;                                                       17P     10
510,211,1,1,63;                                                       19P     11
510,213,1,1,65;                                                       21P     12
510,215,1,1,67;                                                       23P     13
510,217,1,1,69;                                                       25P     14
510,219,1,1,71;                                                       27P     15
510,221,1,1,73;                                                       29P     16
510,223,1,1,75;                                                       31P     17
510,225,1,1,77;                                                       33P     18
510,227,1,1,79;                                                       35P     19
510,229,1,1,81;                                                       37P     20
510,231,1,1,83;                                                       39P     21
510,233,1,1,85;                                                       41P     22
510,235,1,1,87;                                                       43P     23
510,237,1,1,89;                                                       45P     24
510,239,5,1,91,93,95,97,99;                                           47P     25
508,4,0,243,1,0,0,0,243,2,1,0,0,243,3,0,0,0,243,2,0,0;                49P     26
508,1,0,243,1,1,0;                                                    51P     27
508,4,0,243,4,0,0,0,243,5,1,0,0,243,6,0,0,0,243,5,0,0;                53P     28
508,1,0,243,4,1,0;                                                    55P     29
508,4,0,243,7,0,0,0,243,8,1,0,0,243,9,0,0,0,243,8,0,0;                57P     30
508,1,0,243,7,1,0;                                                    59P     31
508,4,0,243,10,0,0,0,243,11,1,0,0,243,12,0,0,0,243,11,0,0;            61P     32
508,1,0,243,10,1,0;                                                   63P     33
508,4,0,243,13,1,0,0,243,14,0,0,0,243,15,0,0,0,243,16,0,0;            65P     34
508,4,0,243,17,1,0,0,243,16,1,0,0,243,18,0,0,0,243,19,0,0;            67P     35
508,4,0,243,20,1,0,0,243,19,1,0,0,243,21,0,0,0,243,22,0,0;            69P     36
508,4,0,243,21,1,0,0,243,18,1,0,0,243,15,1,0,0,243,23,0,0;            71P     37
508,8,0,243,22,1,0,0,243,23,1,0,0,243,14,1,0,0,243,24,1,0,0,243,      73P     38
25,1,0,0,243,26,0,0,0,243,27,0,0,0,243,28,1,0;                        73P     39
508,4,0,243,29,1,0,0,243,30,0,0,0,243,31,0,0,0,243,32,0,0;            75P     40
508,4,0,243,33,1,0,0,243,32,1,0,0,243,34,0,0,0,243,35,0,0;            77P     41
508,4,0,243,36,1,0,0,243,35,1,0,0,243,37,0,0,0,243,38,0,0;            79P     42
508,4,0,243,37,1,0,0,243,34,1,0,0,243,31,1,0,0,243,39,0,0;            81P     43
508,8,0,243,38,1,0,0,243,39,1,0,0,243,30,1,0,0,243,40,1,0,0,243,      83P     44
41,1,0,0,243,42,0,0,0,243,43,0,0,0,243,44,1,0;                        83P     45
508,4,0,243,45,1,0,0,243,27,1,0,0,243,46,0,0,0,243,41,0,0;            85P     46
508,4,0,243,47,1,0,0,243,43,1,0,0,243,48,0,0,0,243,25,0,0;            87P     47
508,4,0,243,48,1,0,0,243,42,1,0,0,243,46,1,0,0,243,26,1,0;            89P     48
508,12,0,243,47,0,0,0,243,24,0,0,0,243,13,0,0,0,243,17,0,0,0,         91P     49
243,20,0,0,0,243,28,0,0,0,243,45,0,0,0,243,40,0,0,0,243,29,0,0,       91P     50
0,243,33,0,0,0,243,36,0,0,0,243,44,0,0;                               91P     51
508,1,0,243,3,1,0;                                                    93P     52
508,1,0,243,6,1,0;                                                    95P     53
508,1,0,243,9,1,0;                                                    97P     54
508,1,0,243,12,1,0;                                                   99P     55
126,8,2,0,1,0,0,-3.14159265358979,-3.14159265358979,                 101P     56
-3.14159265358979,-1.5707963267949,-1.5707963267949,0.,0.,           101P     57
1.5707963267949,1.5707963267949,3.14159265358979,                    101P     58
3.14159265358979,3.14159265358979,1.,0.707106781186549,1.,           101P     59
0.707106781186549,1.,0.707106781186549,1.,0.707106781186549,1.,      101P     60
2.1,1.75,-4.,2.1,2.,-4.,2.35,2.,-4.,2.6,2.,-4.,2.6,1.75,-4.,2.6,     101P     61
1.5,-4.,2.35,1.5,-4.,2.1,1.5,-4.,2.1,1.75,-4.,-3.14159265358979,     101P     62
3.14159265358979,0.,0.,0.;                                           101P     63
126,1,1,0,0,1,0,-16.,-16.,0.,0.,1.,1.,2.1,1.75,-4.,2.1,1.75,0.,      103P     64
-16.,0.,0.,0.,0.;                                                    103P     65
126,8,2,0,1,0,0,-3.14159265358979,-3.14159265358979,                 105P     66
-3.14159265358979,-1.5707963267949,-1.5707963267949,0.,0.,           105P     67
1.5707963267949,1.5707963267949,3.14159265358979,                    105P     68
3.14159265358979,3.14159265358979,1.,0.707106781186549,1.,           105P     69
0.707106781186549,1.,0.707106781186549,1.,0.707106781186549,1.,      105P     70
2.1,1.75,0.,2.1,1.5,0.,2.35,1.5,0.,2.6,1.5,0.,2.6,1.75,0.,2.6,       105P     71
2.,0.,2.35,2.,0.,2.1,2.,0.,2.1,1.75,0.,-3.14159265358979,            105P     72
3.14159265358979,0.,0.,0.;                                           105P     73
126,8,2,0,1,0,0,-3.14159265358979,-3.14159265358979,                 107P     74
-3.14159265358979,-1.5707963267949,-1.5707963267949,0.,0.,           107P     75
1.5707963267949,1.5707963267949,3.14159265358979,                    107P     76
3.14159265358979,3.14159265358979,1.,0.707106781186551,1.,           107P     77
0.707106781186551,1.,0.707106781186551,1.,0.707106781186551,1.,      107P     78
9.9,1.75,-4.,9.9,2.,-4.,10.15,2.,-4.,10.4,2.,-4.,10.4,1.75,-4.,      107P     79
10.4,1.5,-4.,10.15,1.5,-4.,9.9,1.5,-4.,9.9,1.75,-4.,                 107P     80
-3.14159265358979,3.14159265358979,0.,0.,0.;                         107P     81
126,1,1,0,0,1,0,-16.0000000000001,-16.0000000000001,0.,0.,1.,1.,     109P     82
9.9,1.75,-4.,9.9,1.75,0.,-16.0000000000001,0.,0.,0.,0.;              109P     83
126,8,2,0,1,0,0,-3.14159265358979,-3.14159265358979,                 111P     84
-3.14159265358979,-1.5707963267949,-1.5707963267949,0.,0.,           111P     85
1.5707963267949,1.5707963267949,3.14159265358979,                    111P     86
3.14159265358979,3.14159265358979,1.,0.707106781186551,1.,           111P     87
0.707106781186551,1.,0.707106781186551,1.,0.707106781186551,1.,      111P     88
9.9,1.75,0.,9.9,1.5,0.,10.15,1.5,0.,10.4,1.5,0.,10.4,1.75,0.,        111P     89
10.4,2.,0.,10.15,2.,0.,9.9,2.,0.,9.9,1.75,0.,-3.14159265358979,      111P     90
3.14159265358979,0.,0.,0.;                                           111P     91
126,8,2,0,1,0,0,-3.14159265358979,-3.14159265358979,                 113P     92
-3.14159265358979,-1.5707963267949,-1.5707963267949,0.,0.,           113P     93
1.5707963267949,1.5707963267949,3.14159265358979,                    113P     94
3.14159265358979,3.14159265358979,1.,0.707106781186542,1.,           113P     95
0.707106781186542,1.,0.707106781186542,1.,0.707106781186542,1.,      113P     96
2.1,8.75,-4.,2.1,9.,-4.,2.35,9.,-4.,2.6,9.,-4.,2.6,8.75,-4.,2.6,     113P     97
8.5,-4.,2.35,8.5,-4.,2.1,8.5,-4.,2.1,8.75,-4.,-3.14159265358979,     113P     98
3.14159265358979,0.,0.,0.;                                           113P     99
126,1,1,0,0,1,0,-16.,-16.,0.,0.,1.,1.,2.1,8.75,-4.,2.1,8.75,0.,      115P    100
-16.,0.,0.,0.,0.;                                                    115P    101
126,8,2,0,1,0,0,-3.14159265358979,-3.14159265358979,                 117P    102
-3.14159265358979,-1.5707963267949,-1.5707963267949,0.,0.,           117P    103
1.5707963267949,1.5707963267949,3.14159265358979,                    117P    104
3.14159265358979,3.14159265358979,1.,0.707106781186542,1.,           117P    105
0.707106781186542,1.,0.707106781186542,1.,0.707106781186542,1.,      117P    106
2.1,8.75,0.,2.1,8.5,0.,2.35,8.5,0.,2.6,8.5,0.,2.6,8.75,0.,2.6,       117P    107
9.,0.,2.35,9.,0.,2.1,9.,0.,2.1,8.75,0.,-3.14159265358979,            117P    108
3.14159265358979,0.,0.,0.;                                           117P    109
126,8,2,0,1,0,0,-3.14159265358979,-3.14159265358979,                 119P    110
-3.14159265358979,-1.5707963267949,-1.5707963267949,0.,0.,           119P    111
1.5707963267949,1.5707963267949,3.14159265358979,                    119P    112
3.14159265358979,3.14159265358979,1.,0.707106781186554,1.,           119P    113
0.707106781186554,1.,0.707106781186554,1.,0.707106781186554,1.,      119P    114
9.9,8.75,-4.,9.9,9.,-4.,10.15,9.,-4.,10.4,9.,-4.,10.4,8.75,-4.,      119P    115
10.4,8.5,-4.,10.15,8.5,-4.,9.9,8.5,-4.,9.9,8.75,-4.,                 119P    116
-3.14159265358979,3.14159265358979,0.,0.,0.;                         119P    117
126,1,1,0,0,1,0,-16.0000000000001,-16.0000000000001,0.,0.,1.,1.,     121P    118
9.9,8.75,-4.,9.9,8.75,0.,-16.0000000000001,0.,0.,0.,0.;              121P    119
126,8,2,0,1,0,0,-3.14159265358979,-3.14159265358979,                 123P    120
-3.14159265358979,-1.5707963267949,-1.5707963267949,0.,0.,           123P    121
1.5707963267949,1.5707963267949,3.14159265358979,                    123P    122
3.14159265358979,3.14159265358979,1.,0.707106781186554,1.,           123P    123
0.707106781186554,1.,0.707106781186554,1.,0.707106781186554,1.,      123P    124
9.9,8.75,0.,9.9,8.5,0.,10.15,8.5,0.,10.4,8.5,0.,10.4,8.75,0.,        123P    125
10.4,9.,0.,10.15,9.,0.,9.9,9.,0.,9.9,8.75,0.,-3.14159265358979,      123P    126
3.14159265358979,0.,0.,0.;                                           123P    127
126,1,1,0,0,1,0,0.,0.,0.375,0.375,1.,1.,0.,10.5,0.,0.,6.75,0.,       125P    128
0.,0.375,0.,0.,0.;                                                   125P    129
126,1,1,0,0,1,0,-1.27,-1.27,0.,0.,1.,1.,0.,6.75,12.7,0.,6.75,0.,     127P    130
-1.27,0.,0.,0.,0.;                                                   127P    131
126,1,1,0,0,1,0,0.,0.,0.375,0.375,1.,1.,0.,10.5,12.7,0.,6.75,        129P    132
12.7,0.,0.375,0.,0.,0.;                                              129P    133
126,1,1,0,0,1,0,0.,0.,1.27,1.27,1.,1.,0.,10.5,0.,0.,10.5,12.7,       131P    134
0.,1.27,0.,0.,0.;                                                    131P    135
126,1,1,0,0,1,0,0.,0.,1.25,1.25,1.,1.,12.5,10.5,0.,0.,10.5,0.,       133P    136
0.,1.25,0.,0.,0.;                                                    133P    137
126,1,1,0,0,1,0,0.,0.,1.25,1.25,1.,1.,12.5,10.5,12.7,0.,10.5,        135P    138
12.7,0.,1.25,0.,0.,0.;                                               135P    139
126,1,1,0,0,1,0,0.,0.,1.27,1.27,1.,1.,12.5,10.5,0.,12.5,10.5,        137P    140
12.7,0.,1.27,0.,0.,0.;                                               137P    141
126,1,1,0,0,1,0,0.675,0.675,1.05,1.05,1.,1.,12.5,6.75,0.,12.5,       139P    142
10.5,0.,0.675,1.05,0.,0.,0.;                                         139P    143
126,1,1,0,0,1,0,0.675,0.675,1.05,1.05,1.,1.,12.5,6.75,12.7,12.5,     141P    144
10.5,12.7,0.675,1.05,0.,0.,0.;                                       141P    145
126,1,1,0,0,1,0,0.,0.,1.27,1.27,1.,1.,12.5,6.75,0.,12.5,6.75,        143P    146
12.7,0.,1.27,0.,0.,0.;                                               143P    147
126,1,1,0,0,1,0,-0.235,-0.235,1.015,1.015,1.,1.,12.5,6.75,12.7,      145P    148
0.,6.75,12.7,-0.235,1.015,0.,0.,0.;                                  145P    149
126,1,1,0,0,1,0,1.405,1.405,1.56,1.56,1.,1.,0.,6.75,0.,-1.55,        147P    150
6.75,0.,1.405,1.56,0.,0.,0.;                                         147P    151
126,1,1,0,0,1,0,0.,0.,1.65,1.65,1.,1.,-1.55,6.75,0.,-1.55,6.75,      149P    152
16.5,0.,1.65,0.,0.,0.;                                               149P    153
126,1,1,0,0,1,0,0.,0.,1.56,1.56,1.,1.,14.05,6.75,16.5,-1.55,         151P    154
6.75,16.5,0.,1.56,0.,0.,0.;                                          151P    155
126,1,1,0,0,1,0,0.,0.,1.65,1.65,1.,1.,14.05,6.75,0.,14.05,6.75,      153P    156
16.5,0.,1.65,0.,0.,0.;                                               153P    157
126,1,1,0,0,1,0,0.,0.,0.155,0.155,1.,1.,14.05,6.75,0.,12.5,6.75,     155P    158
0.,0.,0.155,0.,0.,0.;                                                155P    159
126,1,1,0,0,1,0,0.,0.,0.375,0.375,1.,1.,12.5,0.,0.,12.5,3.75,0.,     157P    160
0.,0.375,0.,0.,0.;                                                   157P    161
126,1,1,0,0,1,0,-1.27,-1.27,0.,0.,1.,1.,12.5,3.75,12.7,12.5,         159P    162
3.75,0.,-1.27,0.,0.,0.,0.;                                           159P    163
126,1,1,0,0,1,0,0.,0.,0.375,0.375,1.,1.,12.5,0.,12.7,12.5,3.75,      161P    164
12.7,0.,0.375,0.,0.,0.;                                              161P    165
126,1,1,0,0,1,0,0.,0.,1.27,1.27,1.,1.,12.5,0.,0.,12.5,0.,12.7,       163P    166
0.,1.27,0.,0.,0.;                                                    163P    167
126,1,1,0,0,1,0,0.,0.,1.25,1.25,1.,1.,0.,0.,0.,12.5,0.,0.,0.,        165P    168
1.25,0.,0.,0.;                                                       165P    169
126,1,1,0,0,1,0,0.,0.,1.25,1.25,1.,1.,0.,0.,12.7,12.5,0.,12.7,       167P    170
0.,1.25,0.,0.,0.;                                                    167P    171
126,1,1,0,0,1,0,0.,0.,1.27,1.27,1.,1.,0.,0.,0.,0.,0.,12.7,0.,        169P    172
1.27,0.,0.,0.;                                                       169P    173
126,1,1,0,0,1,0,0.675,0.675,1.05,1.05,1.,1.,0.,3.75,0.,0.,0.,0.,     171P    174
0.675,1.05,0.,0.,0.;                                                 171P    175
126,1,1,0,0,1,0,0.675,0.675,1.05,1.05,1.,1.,0.,3.75,12.7,0.,0.,      173P    176
12.7,0.675,1.05,0.,0.,0.;                                            173P    177
126,1,1,0,0,1,0,0.,0.,1.27,1.27,1.,1.,0.,3.75,0.,0.,3.75,12.7,       175P    178
0.,1.27,0.,0.,0.;                                                    175P    179
126,1,1,0,0,1,0,-0.235,-0.235,1.015,1.015,1.,1.,0.,3.75,12.7,        177P    180
12.5,3.75,12.7,-0.235,1.015,0.,0.,0.;                                177P    181
126,1,1,0,0,1,0,1.405,1.405,1.56,1.56,1.,1.,12.5,3.75,0.,14.05,      179P    182
3.75,0.,1.405,1.56,0.,0.,0.;                                         179P    183
126,1,1,0,0,1,0,0.,0.,1.65,1.65,1.,1.,14.05,3.75,0.,14.05,3.75,      181P    184
16.5,0.,1.65,0.,0.,0.;                                               181P    185
126,1,1,0,0,1,0,0.,0.,1.56,1.56,1.,1.,-1.55,3.75,16.5,14.05,         183P    186
3.75,16.5,0.,1.56,0.,0.,0.;                                          183P    187
126,1,1,0,0,1,0,0.,0.,1.65,1.65,1.,1.,-1.55,3.75,0.,-1.55,3.75,      185P    188
16.5,0.,1.65,0.,0.,0.;                                               185P    189
126,1,1,0,0,1,0,0.,0.,0.155,0.155,1.,1.,-1.55,3.75,0.,0.,3.75,       187P    190
0.,0.,0.155,0.,0.,0.;                                                187P    191
126,1,1,0,0,1,0,0.,0.,0.3,0.3,1.,1.,14.05,3.75,0.,14.05,6.75,0.,     189P    192
0.,0.3,0.,0.,0.;                                                     189P    193
126,1,1,0,0,1,0,0.,0.,0.3,0.3,1.,1.,14.05,3.75,16.5,14.05,6.75,      191P    194
16.5,0.,0.3,0.,0.,0.;                                                191P    195
126,1,1,0,0,1,0,0.,0.,0.3,0.3,1.,1.,-1.55,6.75,0.,-1.55,3.75,0.,     193P    196
0.,0.3,0.,0.,0.;                                                     193P    197
126,1,1,0,0,1,0,0.,0.,0.3,0.3,1.,1.,-1.55,6.75,16.5,-1.55,3.75,      195P    198
16.5,0.,0.3,0.,0.,0.;                                                195P    199
128,1,8,1,2,0,1,0,0,1,0.,0.,16.,16.,-3.14159265358979,               197P    200
-3.14159265358979,-3.14159265358979,-1.5707963267949,                197P    201
-1.5707963267949,0.,0.,1.5707963267949,1.5707963267949,              197P    202
3.14159265358979,3.14159265358979,3.14159265358979,1.,1.,            197P    203
0.707106781186548,0.707106781186548,1.,1.,0.707106781186548,         197P    204
0.707106781186548,1.,1.,0.707106781186548,0.707106781186548,1.,      197P    205
1.,0.707106781186548,0.707106781186548,1.,1.,2.1,1.75,-4.,2.1,       197P    206
1.75,0.,2.1,2.,-4.,2.1,2.,0.,2.35,2.,-4.,2.35,2.,0.,2.6,2.,-4.,      197P    207
2.6,2.,0.,2.6,1.75,-4.,2.6,1.75,0.,2.6,1.5,-4.,2.6,1.5,0.,2.35,      197P    208
1.5,-4.,2.35,1.5,0.,2.1,1.5,-4.,2.1,1.5,0.,2.1,1.75,-4.,2.1,         197P    209
1.75,0.,0.,16.,-3.14159265358979,3.14159265358979;                   197P    210
128,1,1,1,1,0,0,1,0,0,-0.026,-0.026,0.026,0.026,-0.026,-0.026,       199P    211
0.026,0.026,1.,1.,1.,1.,2.61,1.49,-4.,2.09,1.49,-4.,2.61,2.01,       199P    212
-4.,2.09,2.01,-4.,-0.026,0.026,-0.026,0.026;                         199P    213
128,1,8,1,2,0,1,0,0,1,0.,0.,16.0000000000001,16.0000000000001,       201P    214
-3.14159265358979,-3.14159265358979,-3.14159265358979,               201P    215
-1.5707963267949,-1.5707963267949,0.,0.,1.5707963267949,             201P    216
1.5707963267949,3.14159265358979,3.14159265358979,                   201P    217
3.14159265358979,1.,1.,0.707106781186548,0.707106781186548,1.,       201P    218
1.,0.707106781186548,0.707106781186548,1.,1.,0.707106781186548,      201P    219
0.707106781186548,1.,1.,0.707106781186548,0.707106781186548,1.,      201P    220
1.,9.9,1.75,-4.,9.9,1.75,0.,9.9,2.,-4.,9.9,2.,0.,10.15,2.,-4.,       201P    221
10.15,2.,0.,10.4,2.,-4.,10.4,2.,0.,10.4,1.75,-4.,10.4,1.75,0.,       201P    222
10.4,1.5,-4.,10.4,1.5,0.,10.15,1.5,-4.,10.15,1.5,0.,9.9,1.5,-4.,     201P    223
9.9,1.5,0.,9.9,1.75,-4.,9.9,1.75,0.,0.,16.0000000000001,             201P    224
-3.14159265358979,3.14159265358979;                                  201P    225
128,1,1,1,1,0,0,1,0,0,-0.0259999999999999,-0.0259999999999999,       203P    226
0.0259999999999999,0.0259999999999999,-0.0259999999999999,           203P    227
-0.0259999999999999,0.0259999999999999,0.0259999999999999,1.,1.,     203P    228
1.,1.,10.41,1.49,-4.,9.89,1.49,-4.,10.41,2.01,-4.,9.89,2.01,-4.,     203P    229
-0.0259999999999999,0.0259999999999999,-0.0259999999999999,          203P    230
0.0259999999999999;                                                  203P    231
128,1,8,1,2,0,1,0,0,1,0.,0.,16.,16.,-3.14159265358979,               205P    232
-3.14159265358979,-3.14159265358979,-1.5707963267949,                205P    233
-1.5707963267949,0.,0.,1.5707963267949,1.5707963267949,              205P    234
3.14159265358979,3.14159265358979,3.14159265358979,1.,1.,            205P    235
0.707106781186548,0.707106781186548,1.,1.,0.707106781186548,         205P    236
0.707106781186548,1.,1.,0.707106781186548,0.707106781186548,1.,      205P    237
1.,0.707106781186548,0.707106781186548,1.,1.,2.1,8.75,-4.,2.1,       205P    238
8.75,0.,2.1,9.,-4.,2.1,9.,0.,2.35,9.,-4.,2.35,9.,0.,2.6,9.,-4.,      205P    239
2.6,9.,0.,2.6,8.75,-4.,2.6,8.75,0.,2.6,8.5,-4.,2.6,8.5,0.,2.35,      205P    240
8.5,-4.,2.35,8.5,0.,2.1,8.5,-4.,2.1,8.5,0.,2.1,8.75,-4.,2.1,         205P    241
8.75,0.,0.,16.,-3.14159265358979,3.14159265358979;                   205P    242
128,1,1,1,1,0,0,1,0,0,-0.026,-0.026,0.026,0.026,-0.026,-0.026,       207P    243
0.026,0.026,1.,1.,1.,1.,2.61,8.49,-4.,2.09,8.49,-4.,2.61,9.01,       207P    244
-4.,2.09,9.01,-4.,-0.026,0.026,-0.026,0.026;                         207P    245
128,1,8,1,2,0,1,0,0,1,0.,0.,16.0000000000001,16.0000000000001,       209P    246
-3.14159265358979,-3.14159265358979,-3.14159265358979,               209P    247
-1.5707963267949,-1.5707963267949,0.,0.,1.5707963267949,             209P    248
1.5707963267949,3.14159265358979,3.14159265358979,                   209P    249
3.14159265358979,1.,1.,0.707106781186548,0.707106781186548,1.,       209P    250
1.,0.707106781186548,0.707106781186548,1.,1.,0.707106781186548,      209P    251
0.707106781186548,1.,1.,0.707106781186548,0.707106781186548,1.,      209P    252
1.,9.9,8.75,-4.,9.9,8.75,0.,9.9,9.,-4.,9.9,9.,0.,10.15,9.,-4.,       209P    253
10.15,9.,0.,10.4,9.,-4.,10.4,9.,0.,10.4,8.75,-4.,10.4,8.75,0.,       209P    254
10.4,8.5,-4.,10.4,8.5,0.,10.15,8.5,-4.,10.15,8.5,0.,9.9,8.5,-4.,     209P    255
9.9,8.5,0.,9.9,8.75,-4.,9.9,8.75,0.,0.,16.0000000000001,             209P    256
-3.14159265358979,3.14159265358979;                                  209P    257
128,1,1,1,1,0,0,1,0,0,-0.0259999999999999,-0.0259999999999999,       211P    258
0.0259999999999999,0.0259999999999999,-0.0259999999999999,           211P    259
-0.0259999999999999,0.0259999999999999,0.0259999999999999,1.,1.,     211P    260
1.,1.,10.41,8.49,-4.,9.89,8.49,-4.,10.41,9.01,-4.,9.89,9.01,-4.,     211P    261
-0.0259999999999999,0.0259999999999999,-0.0259999999999999,          211P    262
0.0259999999999999;                                                  211P    263
128,1,1,1,1,0,0,1,0,0,-0.001,-0.001,0.376,0.376,-0.001,-0.001,       213P    264
1.271,1.271,1.,1.,1.,1.,0.,10.51,-0.01,0.,6.74,-0.01,0.,10.51,       213P    265
12.71,0.,6.74,12.71,-0.001,0.376,-0.001,1.271;                       213P    266
128,1,1,1,1,0,0,1,0,0,-0.001,-0.001,1.251,1.251,-0.001,-0.001,       215P    267
1.271,1.271,1.,1.,1.,1.,12.51,10.5,-0.01,-0.0099999999999989,        215P    268
10.5,-0.01,12.51,10.5,12.71,-0.0099999999999989,10.5,12.71,          215P    269
-0.001,1.251,-0.001,1.271;                                           215P    270
128,1,1,1,1,0,0,1,0,0,-0.001,-0.001,0.376,0.376,-0.001,-0.001,       217P    271
1.271,1.271,1.,1.,1.,1.,12.5,6.74,-0.01,12.5,10.51,-0.01,12.5,       217P    272
6.74,12.71,12.5,10.51,12.71,-0.001,0.376,-0.001,1.271;               217P    273
128,1,1,1,1,0,0,1,0,0,-0.626,-0.626,0.626,0.626,-0.1885,-0.1885,     219P    274
0.1885,0.1885,1.,1.,1.,1.,-0.01,6.74,12.7,12.51,6.74,12.7,-0.01,     219P    275
10.51,12.7,12.51,10.51,12.7,-0.626,0.626,-0.1885,0.1885;             219P    276
128,1,1,1,1,0,0,1,0,0,-0.001,-0.001,1.561,1.561,-0.001,-0.001,       221P    277
1.651,1.651,1.,1.,1.,1.,14.06,6.75,-0.01,-1.55999999999999,6.75,     221P    278
-0.01,14.06,6.75,16.51,-1.55999999999999,6.75,16.51,-0.001,          221P    279
1.561,-0.001,1.651;                                                  221P    280
128,1,1,1,1,0,0,1,0,0,-0.001,-0.001,0.376,0.376,-0.001,-0.001,       223P    281
1.271,1.271,1.,1.,1.,1.,12.5,-0.01,-0.01,12.5,3.76,-0.01,12.5,       223P    282
-0.01,12.71,12.5,3.76,12.71,-0.001,0.376,-0.001,1.271;               223P    283
128,1,1,1,1,0,0,1,0,0,-0.001,-0.001,1.251,1.251,-0.001,-0.001,       225P    284
1.271,1.271,1.,1.,1.,1.,-0.01,0.,-0.01,12.51,0.,-0.01,-0.01,0.,      225P    285
12.71,12.51,0.,12.71,-0.001,1.251,-0.001,1.271;                      225P    286
128,1,1,1,1,0,0,1,0,0,-0.001,-0.001,0.376,0.376,-0.001,-0.001,       227P    287
1.271,1.271,1.,1.,1.,1.,0.,3.76,-0.01,0.,-0.01,-0.01,0.,3.76,        227P    288
12.71,0.,-0.01,12.71,-0.001,0.376,-0.001,1.271;                      227P    289
128,1,1,1,1,0,0,1,0,0,-0.626,-0.626,0.626,0.626,-0.1885,-0.1885,     229P    290
0.1885,0.1885,1.,1.,1.,1.,-0.0100000000000011,-0.01,12.7,12.51,      229P    291
-0.01,12.7,-0.0100000000000011,3.76,12.7,12.51,3.76,12.7,-0.626,     229P    292
0.626,-0.1885,0.1885;                                                229P    293
128,1,1,1,1,0,0,1,0,0,-0.001,-0.001,1.561,1.561,-0.001,-0.001,       231P    294
1.651,1.651,1.,1.,1.,1.,-1.56,3.75,-0.01,14.06,3.75,-0.01,-1.56,     231P    295
3.75,16.51,14.06,3.75,16.51,-0.001,1.561,-0.001,1.651;               231P    296
128,1,1,1,1,0,0,1,0,0,-0.001,-0.001,0.301,0.301,-0.001,-0.001,       233P    297
1.651,1.651,1.,1.,1.,1.,14.05,3.74,-0.01,14.05,6.76,-0.01,14.05,     233P    298
3.74,16.51,14.05,6.76,16.51,-0.001,0.301,-0.001,1.651;               233P    299
128,1,1,1,1,0,0,1,0,0,-0.001,-0.001,0.301,0.301,-0.001,-0.001,       235P    300
1.651,1.651,1.,1.,1.,1.,-1.55,6.76,-0.01,-1.55,3.74,-0.01,-1.55,     235P    301
6.76,16.51,-1.55,3.74,16.51,-0.001,0.301,-0.001,1.651;               235P    302
128,1,1,1,1,0,0,1,0,0,-0.781,-0.781,0.781,0.781,-0.151,-0.151,       237P    303
0.151,0.151,1.,1.,1.,1.,-1.56,3.74,16.5,14.06,3.74,16.5,-1.56,       237P    304
6.76,16.5,14.06,6.76,16.5,-0.781,0.781,-0.151,0.151;                 237P    305
128,1,1,1,1,0,0,1,0,0,-0.781,-0.781,0.781,0.781,-0.526,-0.526,       239P    306
0.526,0.526,1.,1.,1.,1.,14.06,-0.01,0.,-1.56,-0.01,0.,14.06,         239P    307
10.51,0.,-1.56,10.51,0.,-0.781,0.781,-0.526,0.526;                   239P    308
502,32,2.1,1.75,-4.,2.1,1.75,0.,9.9,1.75,-4.,9.9,1.75,0.,2.1,        241P    309
8.75,-4.,2.1,8.75,0.,9.9,8.75,-4.,9.9,8.75,0.,0.,10.5,0.,0.,         241P    310
6.75,0.,0.,6.75,12.7,0.,10.5,12.7,12.5,10.5,0.,12.5,10.5,12.7,       241P    311
12.5,6.75,0.,12.5,6.75,12.7,-1.55,6.75,0.,-1.55,6.75,16.5,14.05,     241P    312
6.75,16.5,14.05,6.75,0.,12.5,0.,0.,12.5,3.75,0.,12.5,3.75,12.7,      241P    313
12.5,0.,12.7,0.,0.,0.,0.,0.,12.7,0.,3.75,0.,0.,3.75,12.7,14.05,      241P    314
3.75,0.,14.05,3.75,16.5,-1.55,3.75,16.5,-1.55,3.75,0.;               241P    315
504,48,101,241,1,241,1,103,241,1,241,2,105,241,2,241,2,107,241,      243P    316
3,241,3,109,241,3,241,4,111,241,4,241,4,113,241,5,241,5,115,241,     243P    317
5,241,6,117,241,6,241,6,119,241,7,241,7,121,241,7,241,8,123,241,     243P    318
8,241,8,125,241,9,241,10,127,241,11,241,10,129,241,12,241,11,        243P    319
131,241,9,241,12,133,241,13,241,9,135,241,14,241,12,137,241,13,      243P    320
241,14,139,241,15,241,13,141,241,16,241,14,143,241,15,241,16,        243P    321
145,241,16,241,11,147,241,10,241,17,149,241,17,241,18,151,241,       243P    322
19,241,18,153,241,20,241,19,155,241,20,241,15,157,241,21,241,22,     243P    323
159,241,23,241,22,161,241,24,241,23,163,241,21,241,24,165,241,       243P    324
25,241,21,167,241,26,241,24,169,241,25,241,26,171,241,27,241,25,     243P    325
173,241,28,241,26,175,241,27,241,28,177,241,28,241,23,179,241,       243P    326
22,241,29,181,241,29,241,30,183,241,31,241,30,185,241,32,241,31,     243P    327
187,241,32,241,27,189,241,29,241,20,191,241,30,241,19,193,241,       243P    328
17,241,32,195,241,18,241,31;                                         243P    329
406,1,5HBody1;                                                       245P    330
314,62.7450980392157,62.7450980392157,62.7450980392157,13HSteel      247P    331
- Satin;                                                             247P    332
S      1G      4D    248P    332                                        T      1
